<svg width="252" height="258" viewBox="0 0 252 258" fill="none" xmlns="http://www.w3.org/2000/svg">
<mask id="mask0_7724_120707" style="mask-type:alpha" maskUnits="userSpaceOnUse" x="0" y="0" width="252" height="258">
<rect width="252" height="258" rx="6" fill="#C4C4C4"/>
</mask>
<g mask="url(#mask0_7724_120707)">
<path d="M139.232 279.251V273.398L221.951 226.206V231.991L139.232 279.251Z" fill="url(#paint0_linear_7724_120707)"/>
<path d="M139.232 279.23V273.397L30.0015 209.768V215.6L139.232 279.23Z" fill="url(#paint1_linear_7724_120707)"/>
<path d="M139.231 273.398L30 209.769L112.953 162.046L221.95 226.206L139.231 273.398Z" fill="url(#paint2_linear_7724_120707)"/>
<path d="M155.866 252.187L64.9966 198.803L71.6923 194.921L162.562 248.305L155.866 252.187Z" fill="url(#paint3_linear_7724_120707)"/>
<path d="M81.6647 225.675L51.2095 208.322L57.8716 204.465L88.3268 221.819L81.6647 225.675Z" fill="url(#paint4_linear_7724_120707)"/>
<path d="M170.94 242.643L78.7837 189.833L111.766 171.59L203.922 224.4L170.94 242.643Z" fill="url(#paint5_linear_7724_120707)"/>
<path d="M78.7837 189.62L203.922 224.616" stroke="url(#paint6_linear_7724_120707)" stroke-linejoin="round"/>
<path d="M111.658 171.59L171.046 242.643" stroke="url(#paint7_linear_7724_120707)" stroke-linejoin="round"/>
<line x1="139.063" y1="200.669" x2="58.3136" y2="154.048" stroke="black" stroke-width="0.25"/>
<path d="M138.701 207.116V201.284L221.95 153.561V159.346L138.701 207.116Z" fill="url(#paint8_linear_7724_120707)"/>
<path d="M138.701 207.117V201.285L30.0005 137.655V143.488L138.701 207.117Z" fill="url(#paint9_linear_7724_120707)"/>
<path d="M138.701 201.284L30 137.654L114.882 92.053L221.95 153.562L138.701 201.284Z" fill="url(#paint10_linear_7724_120707)"/>
<path d="M86.6186 133.412L30 137.654L138.715 201.284L195.437 168.939L186.953 156.319L138.715 162.046L130.033 144.866L86.6186 146.775V133.412Z" fill="url(#paint11_linear_7724_120707)"/>
<path d="M32.5 137.5L86.6186 133.412V146.775L130.033 144.866L138.715 162.046L186.953 156.319L196 168.5" stroke="#466269" stroke-width="2" stroke-linejoin="round"/>
<path d="M139.232 136.068V130.232L221.951 83.0396V88.8242L139.232 136.068Z" fill="url(#paint12_linear_7724_120707)"/>
<path d="M139.232 136.063V130.231L30.0015 66.601V71.9034L139.232 136.063Z" fill="url(#paint13_linear_7724_120707)"/>
<path d="M139.231 130.231L30 66.6013L114.882 21L221.95 83.0389L139.231 130.231Z" fill="url(#paint14_linear_7724_120707)"/>
<path d="M104.736 63.1803C92.7042 70.0005 96.0302 80.4517 103.769 85.2481C115.377 91.0058 132.789 91.9644 144.396 85.2482C156.004 78.5319 153.102 68.938 143.429 63.1812C133.756 57.4244 118.279 55.5042 104.736 63.1803Z" fill="url(#paint15_linear_7724_120707)" fill-opacity="0.6"/>
<path d="M127.095 67.6616L114.84 75.3742L131.808 78.2665L127.095 67.6616Z" fill="#A5D2DC" stroke="#A5D2DC" stroke-width="2" stroke-linejoin="round"/>
</g>
<defs>
<linearGradient id="paint0_linear_7724_120707" x1="221.951" y1="301.204" x2="221.951" y2="236.293" gradientUnits="userSpaceOnUse">
<stop stop-color="#414F53"/>
<stop offset="1" stop-color="#5F8B95"/>
</linearGradient>
<linearGradient id="paint1_linear_7724_120707" x1="30.0015" y1="307.978" x2="30.0015" y2="222.976" gradientUnits="userSpaceOnUse">
<stop stop-color="#414F53"/>
<stop offset="1" stop-color="#5F8B95"/>
</linearGradient>
<linearGradient id="paint2_linear_7724_120707" x1="181.815" y1="215.66" x2="-88.4492" y2="248.333" gradientUnits="userSpaceOnUse">
<stop stop-color="#293235"/>
<stop offset="1" stop-color="#5F8B95"/>
</linearGradient>
<linearGradient id="paint3_linear_7724_120707" x1="160.673" y1="236.356" x2="77.8925" y2="217.748" gradientUnits="userSpaceOnUse">
<stop stop-color="#404E52"/>
<stop offset="1" stop-color="#50747C" stop-opacity="0.4"/>
</linearGradient>
<linearGradient id="paint4_linear_7724_120707" x1="87.6082" y1="219.812" x2="56.1987" y2="212.56" gradientUnits="userSpaceOnUse">
<stop stop-color="#404E52"/>
<stop offset="1" stop-color="#50747C" stop-opacity="0.4"/>
</linearGradient>
<linearGradient id="paint5_linear_7724_120707" x1="201.5" y1="223" x2="95.6734" y2="198.41" gradientUnits="userSpaceOnUse">
<stop stop-color="#404E52"/>
<stop offset="1" stop-color="#50747C" stop-opacity="0.4"/>
</linearGradient>
<linearGradient id="paint6_linear_7724_120707" x1="102.247" y1="194.059" x2="110.878" y2="241.532" gradientUnits="userSpaceOnUse">
<stop stop-color="#3D5359"/>
<stop offset="1" stop-color="#293235"/>
</linearGradient>
<linearGradient id="paint7_linear_7724_120707" x1="122.793" y1="180.604" x2="171.046" y2="242.643" gradientUnits="userSpaceOnUse">
<stop stop-color="#293235"/>
<stop offset="1" stop-color="#293235" stop-opacity="0.2"/>
</linearGradient>
<linearGradient id="paint8_linear_7724_120707" x1="221.95" y1="229.281" x2="221.95" y2="163.745" gradientUnits="userSpaceOnUse">
<stop stop-color="#414F53"/>
<stop offset="1" stop-color="#5F8B95"/>
</linearGradient>
<linearGradient id="paint9_linear_7724_120707" x1="30.0005" y1="235.866" x2="30.0005" y2="150.864" gradientUnits="userSpaceOnUse">
<stop stop-color="#414F53"/>
<stop offset="1" stop-color="#5F8B95"/>
</linearGradient>
<linearGradient id="paint10_linear_7724_120707" x1="181.815" y1="144.646" x2="-88.2966" y2="177.934" gradientUnits="userSpaceOnUse">
<stop stop-color="#293235"/>
<stop offset="1" stop-color="#5F8B95"/>
</linearGradient>
<linearGradient id="paint11_linear_7724_120707" x1="191.195" y1="169.469" x2="55.4519" y2="149.32" gradientUnits="userSpaceOnUse">
<stop stop-color="#5F8B95"/>
<stop offset="1" stop-color="#5A8089" stop-opacity="0.12"/>
</linearGradient>
<linearGradient id="paint12_linear_7724_120707" x1="221.951" y1="158.015" x2="221.951" y2="93.1234" gradientUnits="userSpaceOnUse">
<stop stop-color="#414F53"/>
<stop offset="1" stop-color="#5F8B95"/>
</linearGradient>
<linearGradient id="paint13_linear_7724_120707" x1="30.0015" y1="164.812" x2="30.0015" y2="79.8097" gradientUnits="userSpaceOnUse">
<stop stop-color="#414F53"/>
<stop offset="1" stop-color="#5F8B95"/>
</linearGradient>
<linearGradient id="paint14_linear_7724_120707" x1="181.815" y1="73.5927" x2="-88.2966" y2="106.881" gradientUnits="userSpaceOnUse">
<stop stop-color="#414F53"/>
<stop offset="1" stop-color="#5F8B95"/>
</linearGradient>
<linearGradient id="paint15_linear_7724_120707" x1="96.2823" y1="71.9043" x2="155.67" y2="78.2673" gradientUnits="userSpaceOnUse">
<stop stop-color="#A5D2DC"/>
<stop offset="1" stop-color="#A5D2DC" stop-opacity="0"/>
</linearGradient>
</defs>
</svg>
