<svg width="342" height="308" viewBox="0 0 342 308" fill="none" xmlns="http://www.w3.org/2000/svg">
<rect x="0.5" y="0.5" width="341" height="307" rx="5.5" fill="url(#paint0_linear_21412_211633)" stroke="#2B363B"/>
<mask id="mask0_21412_211633" maskUnits="userSpaceOnUse" x="0" y="0" width="342" height="135">
<path d="M0 6C0 2.68629 2.68629 0 6 0H336C339.314 0 342 2.68629 342 6V135H0V6Z" fill="url(#paint1_linear_21412_211633)"/>
</mask>
<g mask="url(#mask0_21412_211633)">
<path d="M212.23 94.4077V90.3502L269.746 57.6315V61.642L212.23 94.4077Z" fill="url(#paint2_linear_21412_211633)"/>
<path d="M212.23 94.3936V90.3497L136.279 46.2346V50.2785L212.23 94.3936Z" fill="url(#paint3_linear_21412_211633)"/>
<path d="M212.228 90.3494L136.277 46.2344L193.956 13.1481L269.744 57.6308L212.228 90.3494Z" fill="url(#paint4_linear_21412_211633)"/>
<path d="M223.796 75.6439L160.612 38.6321L165.268 35.9403L228.452 72.9521L223.796 75.6439Z" fill="url(#paint5_linear_21412_211633)"/>
<path d="M172.203 57.2626L151.026 45.2313L155.659 42.5576L176.835 54.589L172.203 57.2626Z" fill="url(#paint6_linear_21412_211633)"/>
<path d="M234.278 69.0272L170.199 32.4137L193.132 19.7654L257.211 56.3789L234.278 69.0272Z" fill="url(#paint7_linear_21412_211633)"/>
<path d="M170.199 32.2633L257.211 56.5266" stroke="url(#paint8_linear_21412_211633)" stroke-linejoin="round"/>
<path d="M193.058 19.7654L234.352 69.0272" stroke="url(#paint9_linear_21412_211633)" stroke-linejoin="round"/>
<path d="M98.8723 117.063V113.02L156.757 79.9332V83.9437L98.8723 117.063Z" fill="url(#paint10_linear_21412_211633)"/>
<path d="M98.8723 117.066V113.022L23.29 68.9071V72.951L98.8723 117.066Z" fill="url(#paint11_linear_21412_211633)"/>
<path d="M98.873 113.02L23.2906 68.9049L82.3114 37.2891L156.758 79.9336L98.873 113.02Z" fill="url(#paint12_linear_21412_211633)"/>
<path d="M62.6589 65.9636L23.2906 68.9046L98.8831 113.02L138.323 90.5945L132.424 81.845L98.8831 85.8153L92.8457 73.9043L62.6589 75.2277V65.9636Z" fill="url(#paint13_linear_21412_211633)"/>
<path d="M26 69L62.6589 65.9636V75.2277L92.8457 73.9043L98.8831 85.8153L132.424 81.845L138 90.5" stroke="#466269" stroke-width="2" stroke-linejoin="round"/>
<path d="M65.9517 67.7785V63.732L123.468 31.0134V35.0238L65.9517 67.7785Z" fill="url(#paint14_linear_21412_211633)"/>
<path d="M65.9517 67.7738V63.7299L-9.9993 19.6148V23.2911L65.9517 67.7738Z" fill="url(#paint15_linear_21412_211633)"/>
<path d="M65.951 63.7309L-10 19.6158L49.0207 -12L123.467 31.0122L65.951 63.7309Z" fill="url(#paint16_linear_21412_211633)"/>
<path d="M41.9644 17.244C33.5982 21.9725 35.9108 29.2184 41.2918 32.5438C49.3628 36.5357 61.4698 37.2003 69.541 32.5439C77.6121 27.8874 75.5943 21.2359 68.8684 17.2446C62.1424 13.2534 51.3806 11.9221 41.9644 17.244Z" fill="url(#paint17_linear_21412_211633)" fill-opacity="0.6"/>
<path d="M57.5124 20.3515L48.9915 25.6988L60.7897 27.704L57.5124 20.3515Z" fill="#A5D2DC" stroke="#A5D2DC" stroke-width="2" stroke-linejoin="round"/>
</g>
<path d="M101.778 272.154C101.143 272.154 100.569 272.065 100.056 271.888C99.5427 271.701 99.104 271.426 98.74 271.062C98.376 270.698 98.096 270.25 97.9 269.718C97.704 269.177 97.606 268.551 97.606 267.842V262.2H99.328V267.772C99.328 268.687 99.5473 269.382 99.986 269.858C100.425 270.334 101.031 270.572 101.806 270.572C102.571 270.572 103.173 270.343 103.612 269.886C104.051 269.429 104.27 268.747 104.27 267.842V262.2H105.992V267.758C105.992 268.486 105.889 269.125 105.684 269.676C105.488 270.227 105.208 270.689 104.844 271.062C104.48 271.426 104.037 271.701 103.514 271.888C103.001 272.065 102.422 272.154 101.778 272.154ZM108.16 264.608H109.854V265.756C109.975 265.579 110.106 265.415 110.246 265.266C110.395 265.107 110.563 264.967 110.75 264.846C110.946 264.725 111.156 264.631 111.38 264.566C111.613 264.491 111.874 264.454 112.164 264.454C113.004 264.454 113.652 264.711 114.11 265.224C114.567 265.737 114.796 266.428 114.796 267.296V272H113.102V267.8C113.102 267.221 112.962 266.778 112.682 266.47C112.411 266.153 112.024 265.994 111.52 265.994C111.025 265.994 110.624 266.157 110.316 266.484C110.008 266.801 109.854 267.249 109.854 267.828V272H108.16V264.608ZM116.939 261.78H118.633V272H116.939V261.78ZM124.389 270.698C124.735 270.698 125.043 270.637 125.313 270.516C125.593 270.385 125.831 270.213 126.027 269.998C126.223 269.783 126.373 269.536 126.475 269.256C126.578 268.967 126.629 268.663 126.629 268.346V268.318C126.629 267.991 126.573 267.683 126.461 267.394C126.349 267.105 126.191 266.853 125.985 266.638C125.789 266.423 125.551 266.255 125.271 266.134C125.001 266.003 124.697 265.938 124.361 265.938C124.025 265.938 123.717 266.003 123.437 266.134C123.167 266.255 122.933 266.423 122.737 266.638C122.541 266.843 122.392 267.091 122.289 267.38C122.187 267.669 122.135 267.973 122.135 268.29V268.318C122.135 268.645 122.191 268.953 122.303 269.242C122.415 269.522 122.569 269.774 122.765 269.998C122.971 270.213 123.209 270.385 123.479 270.516C123.759 270.637 124.063 270.698 124.389 270.698ZM124.361 272.168C123.801 272.168 123.279 272.07 122.793 271.874C122.317 271.669 121.902 271.393 121.547 271.048C121.202 270.703 120.931 270.297 120.735 269.83C120.539 269.363 120.441 268.869 120.441 268.346V268.318C120.441 267.786 120.539 267.287 120.735 266.82C120.941 266.353 121.216 265.947 121.561 265.602C121.916 265.247 122.331 264.967 122.807 264.762C123.293 264.557 123.82 264.454 124.389 264.454C124.959 264.454 125.481 264.557 125.957 264.762C126.443 264.958 126.858 265.233 127.203 265.588C127.558 265.933 127.833 266.339 128.029 266.806C128.225 267.263 128.323 267.758 128.323 268.29V268.318C128.323 268.841 128.221 269.335 128.015 269.802C127.819 270.269 127.544 270.679 127.189 271.034C126.844 271.379 126.429 271.655 125.943 271.86C125.458 272.065 124.931 272.168 124.361 272.168ZM133.464 272.168C132.914 272.168 132.405 272.07 131.938 271.874C131.472 271.669 131.066 271.393 130.72 271.048C130.384 270.703 130.118 270.297 129.922 269.83C129.736 269.363 129.642 268.869 129.642 268.346V268.318C129.642 267.795 129.736 267.301 129.922 266.834C130.118 266.358 130.384 265.947 130.72 265.602C131.066 265.247 131.472 264.967 131.938 264.762C132.414 264.557 132.928 264.454 133.478 264.454C134.178 264.454 134.757 264.571 135.214 264.804C135.681 265.037 136.087 265.345 136.432 265.728L135.382 266.862C135.121 266.591 134.841 266.372 134.542 266.204C134.253 266.027 133.894 265.938 133.464 265.938C133.156 265.938 132.872 266.003 132.61 266.134C132.349 266.255 132.125 266.423 131.938 266.638C131.752 266.843 131.602 267.091 131.49 267.38C131.388 267.669 131.336 267.973 131.336 268.29V268.318C131.336 268.645 131.388 268.953 131.49 269.242C131.602 269.531 131.756 269.783 131.952 269.998C132.148 270.213 132.382 270.385 132.652 270.516C132.923 270.637 133.222 270.698 133.548 270.698C133.95 270.698 134.3 270.614 134.598 270.446C134.906 270.269 135.196 270.045 135.466 269.774L136.488 270.782C136.124 271.193 135.709 271.529 135.242 271.79C134.776 272.042 134.183 272.168 133.464 272.168ZM138.046 261.78H139.74V267.884L142.806 264.608H144.864L141.924 267.618L144.962 272H143.002L140.776 268.808L139.74 269.886V272H138.046V261.78ZM153.934 270.698C154.279 270.698 154.587 270.637 154.858 270.516C155.138 270.385 155.376 270.213 155.572 269.998C155.768 269.783 155.917 269.536 156.02 269.256C156.123 268.967 156.174 268.663 156.174 268.346V268.318C156.174 267.991 156.118 267.683 156.006 267.394C155.894 267.105 155.735 266.853 155.53 266.638C155.334 266.423 155.096 266.255 154.816 266.134C154.545 266.003 154.242 265.938 153.906 265.938C153.57 265.938 153.262 266.003 152.982 266.134C152.711 266.255 152.478 266.423 152.282 266.638C152.086 266.843 151.937 267.091 151.834 267.38C151.731 267.669 151.68 267.973 151.68 268.29V268.318C151.68 268.645 151.736 268.953 151.848 269.242C151.96 269.522 152.114 269.774 152.31 269.998C152.515 270.213 152.753 270.385 153.024 270.516C153.304 270.637 153.607 270.698 153.934 270.698ZM153.906 272.168C153.346 272.168 152.823 272.07 152.338 271.874C151.862 271.669 151.447 271.393 151.092 271.048C150.747 270.703 150.476 270.297 150.28 269.83C150.084 269.363 149.986 268.869 149.986 268.346V268.318C149.986 267.786 150.084 267.287 150.28 266.82C150.485 266.353 150.761 265.947 151.106 265.602C151.461 265.247 151.876 264.967 152.352 264.762C152.837 264.557 153.365 264.454 153.934 264.454C154.503 264.454 155.026 264.557 155.502 264.762C155.987 264.958 156.403 265.233 156.748 265.588C157.103 265.933 157.378 266.339 157.574 266.806C157.77 267.263 157.868 267.758 157.868 268.29V268.318C157.868 268.841 157.765 269.335 157.56 269.802C157.364 270.269 157.089 270.679 156.734 271.034C156.389 271.379 155.973 271.655 155.488 271.86C155.003 272.065 154.475 272.168 153.906 272.168ZM163.401 270.684C163.691 270.684 163.961 270.628 164.213 270.516C164.475 270.404 164.699 270.25 164.885 270.054C165.081 269.849 165.235 269.601 165.347 269.312C165.459 269.013 165.515 268.682 165.515 268.318V268.29C165.515 267.935 165.459 267.613 165.347 267.324C165.235 267.025 165.081 266.773 164.885 266.568C164.699 266.363 164.475 266.204 164.213 266.092C163.961 265.98 163.691 265.924 163.401 265.924C163.112 265.924 162.837 265.98 162.575 266.092C162.314 266.204 162.085 266.367 161.889 266.582C161.693 266.787 161.535 267.035 161.413 267.324C161.301 267.613 161.245 267.935 161.245 268.29V268.318C161.245 268.673 161.301 268.999 161.413 269.298C161.535 269.587 161.693 269.835 161.889 270.04C162.085 270.245 162.314 270.404 162.575 270.516C162.837 270.628 163.112 270.684 163.401 270.684ZM159.593 264.608H161.287V265.84C161.558 265.448 161.894 265.121 162.295 264.86C162.697 264.589 163.196 264.454 163.793 264.454C164.232 264.454 164.657 264.538 165.067 264.706C165.478 264.874 165.842 265.121 166.159 265.448C166.486 265.775 166.747 266.176 166.943 266.652C167.139 267.128 167.237 267.674 167.237 268.29V268.318C167.237 268.934 167.139 269.48 166.943 269.956C166.757 270.432 166.5 270.833 166.173 271.16C165.856 271.487 165.487 271.734 165.067 271.902C164.657 272.07 164.232 272.154 163.793 272.154C163.187 272.154 162.683 272.023 162.281 271.762C161.88 271.501 161.549 271.197 161.287 270.852V274.24H159.593V264.608ZM172.78 270.684C173.07 270.684 173.34 270.628 173.592 270.516C173.854 270.404 174.078 270.25 174.264 270.054C174.46 269.849 174.614 269.601 174.726 269.312C174.838 269.013 174.894 268.682 174.894 268.318V268.29C174.894 267.935 174.838 267.613 174.726 267.324C174.614 267.025 174.46 266.773 174.264 266.568C174.078 266.363 173.854 266.204 173.592 266.092C173.34 265.98 173.07 265.924 172.78 265.924C172.491 265.924 172.216 265.98 171.954 266.092C171.693 266.204 171.464 266.367 171.268 266.582C171.072 266.787 170.914 267.035 170.792 267.324C170.68 267.613 170.624 267.935 170.624 268.29V268.318C170.624 268.673 170.68 268.999 170.792 269.298C170.914 269.587 171.072 269.835 171.268 270.04C171.464 270.245 171.693 270.404 171.954 270.516C172.216 270.628 172.491 270.684 172.78 270.684ZM168.972 264.608H170.666V265.84C170.937 265.448 171.273 265.121 171.674 264.86C172.076 264.589 172.575 264.454 173.172 264.454C173.611 264.454 174.036 264.538 174.446 264.706C174.857 264.874 175.221 265.121 175.538 265.448C175.865 265.775 176.126 266.176 176.322 266.652C176.518 267.128 176.616 267.674 176.616 268.29V268.318C176.616 268.934 176.518 269.48 176.322 269.956C176.136 270.432 175.879 270.833 175.552 271.16C175.235 271.487 174.866 271.734 174.446 271.902C174.036 272.07 173.611 272.154 173.172 272.154C172.566 272.154 172.062 272.023 171.66 271.762C171.259 271.501 170.928 271.197 170.666 270.852V274.24H168.972V264.608ZM181.893 270.698C182.238 270.698 182.546 270.637 182.817 270.516C183.097 270.385 183.335 270.213 183.531 269.998C183.727 269.783 183.876 269.536 183.979 269.256C184.082 268.967 184.133 268.663 184.133 268.346V268.318C184.133 267.991 184.077 267.683 183.965 267.394C183.853 267.105 183.694 266.853 183.489 266.638C183.293 266.423 183.055 266.255 182.775 266.134C182.504 266.003 182.201 265.938 181.865 265.938C181.529 265.938 181.221 266.003 180.941 266.134C180.67 266.255 180.437 266.423 180.241 266.638C180.045 266.843 179.896 267.091 179.793 267.38C179.69 267.669 179.639 267.973 179.639 268.29V268.318C179.639 268.645 179.695 268.953 179.807 269.242C179.919 269.522 180.073 269.774 180.269 269.998C180.474 270.213 180.712 270.385 180.983 270.516C181.263 270.637 181.566 270.698 181.893 270.698ZM181.865 272.168C181.305 272.168 180.782 272.07 180.297 271.874C179.821 271.669 179.406 271.393 179.051 271.048C178.706 270.703 178.435 270.297 178.239 269.83C178.043 269.363 177.945 268.869 177.945 268.346V268.318C177.945 267.786 178.043 267.287 178.239 266.82C178.444 266.353 178.72 265.947 179.065 265.602C179.42 265.247 179.835 264.967 180.311 264.762C180.796 264.557 181.324 264.454 181.893 264.454C182.462 264.454 182.985 264.557 183.461 264.762C183.946 264.958 184.362 265.233 184.707 265.588C185.062 265.933 185.337 266.339 185.533 266.806C185.729 267.263 185.827 267.758 185.827 268.29V268.318C185.827 268.841 185.724 269.335 185.519 269.802C185.323 270.269 185.048 270.679 184.693 271.034C184.348 271.379 183.932 271.655 183.447 271.86C182.962 272.065 182.434 272.168 181.865 272.168ZM187.552 264.608H189.246V266.274C189.48 265.714 189.811 265.266 190.24 264.93C190.67 264.594 191.211 264.44 191.864 264.468V266.26H191.766C191.393 266.26 191.052 266.321 190.744 266.442C190.436 266.563 190.17 266.745 189.946 266.988C189.722 267.231 189.55 267.539 189.428 267.912C189.307 268.276 189.246 268.701 189.246 269.186V272H187.552V264.608ZM195.813 272.126C195.505 272.126 195.221 272.089 194.959 272.014C194.698 271.939 194.469 271.818 194.273 271.65C194.087 271.482 193.942 271.263 193.839 270.992C193.737 270.712 193.685 270.367 193.685 269.956V266.064H192.747V264.608H193.685V262.578H195.379V264.608H197.367V266.064H195.379V269.69C195.379 270.017 195.459 270.255 195.617 270.404C195.776 270.544 196 270.614 196.289 270.614C196.653 270.614 197.003 270.53 197.339 270.362V271.748C197.125 271.869 196.896 271.963 196.653 272.028C196.411 272.093 196.131 272.126 195.813 272.126ZM201.626 272.154C200.786 272.154 200.137 271.897 199.68 271.384C199.222 270.871 198.994 270.18 198.994 269.312V264.608H200.688V268.808C200.688 269.387 200.823 269.835 201.094 270.152C201.374 270.46 201.766 270.614 202.27 270.614C202.764 270.614 203.166 270.455 203.474 270.138C203.782 269.811 203.936 269.359 203.936 268.78V264.608H205.63V272H203.936V270.852C203.693 271.207 203.39 271.515 203.026 271.776C202.662 272.028 202.195 272.154 201.626 272.154ZM207.759 264.608H209.453V265.756C209.575 265.579 209.705 265.415 209.845 265.266C209.995 265.107 210.163 264.967 210.349 264.846C210.545 264.725 210.755 264.631 210.979 264.566C211.213 264.491 211.474 264.454 211.763 264.454C212.603 264.454 213.252 264.711 213.709 265.224C214.167 265.737 214.395 266.428 214.395 267.296V272H212.701V267.8C212.701 267.221 212.561 266.778 212.281 266.47C212.011 266.153 211.623 265.994 211.119 265.994C210.625 265.994 210.223 266.157 209.915 266.484C209.607 266.801 209.453 267.249 209.453 267.828V272H207.759V264.608ZM216.539 264.608H218.233V272H216.539V264.608ZM216.469 261.864H218.289V263.474H216.469V261.864ZM222.925 272.126C222.617 272.126 222.332 272.089 222.071 272.014C221.809 271.939 221.581 271.818 221.385 271.65C221.198 271.482 221.053 271.263 220.951 270.992C220.848 270.712 220.797 270.367 220.797 269.956V266.064H219.859V264.608H220.797V262.578H222.491V264.608H224.479V266.064H222.491V269.69C222.491 270.017 222.57 270.255 222.729 270.404C222.887 270.544 223.111 270.614 223.401 270.614C223.765 270.614 224.115 270.53 224.451 270.362V271.748C224.236 271.869 224.007 271.963 223.765 272.028C223.522 272.093 223.242 272.126 222.925 272.126ZM226.287 264.608H227.981V272H226.287V264.608ZM226.217 261.864H228.037V263.474H226.217V261.864ZM235.263 267.786C235.235 267.515 235.174 267.263 235.081 267.03C234.988 266.787 234.862 266.582 234.703 266.414C234.544 266.237 234.353 266.097 234.129 265.994C233.914 265.891 233.667 265.84 233.387 265.84C232.864 265.84 232.43 266.022 232.085 266.386C231.749 266.741 231.544 267.207 231.469 267.786H235.263ZM233.583 272.168C233.051 272.168 232.552 272.075 232.085 271.888C231.628 271.701 231.226 271.44 230.881 271.104C230.545 270.768 230.279 270.367 230.083 269.9C229.887 269.424 229.789 268.901 229.789 268.332V268.304C229.789 267.772 229.878 267.273 230.055 266.806C230.232 266.339 230.48 265.933 230.797 265.588C231.124 265.233 231.506 264.958 231.945 264.762C232.384 264.557 232.869 264.454 233.401 264.454C233.989 264.454 234.502 264.561 234.941 264.776C235.389 264.991 235.758 265.28 236.047 265.644C236.346 266.008 236.57 266.433 236.719 266.918C236.868 267.394 236.943 267.898 236.943 268.43C236.943 268.505 236.938 268.584 236.929 268.668C236.929 268.743 236.924 268.822 236.915 268.906H231.483C231.576 269.513 231.814 269.979 232.197 270.306C232.589 270.623 233.06 270.782 233.611 270.782C234.031 270.782 234.395 270.707 234.703 270.558C235.011 270.409 235.314 270.189 235.613 269.9L236.607 270.782C236.252 271.202 235.828 271.538 235.333 271.79C234.848 272.042 234.264 272.168 233.583 272.168ZM241.178 272.14C240.646 272.14 240.105 272.047 239.554 271.86C239.013 271.673 238.509 271.398 238.042 271.034L238.798 269.886C239.199 270.185 239.605 270.413 240.016 270.572C240.436 270.721 240.837 270.796 241.22 270.796C241.584 270.796 241.864 270.726 242.06 270.586C242.265 270.437 242.368 270.241 242.368 269.998V269.97C242.368 269.83 242.321 269.709 242.228 269.606C242.144 269.503 242.023 269.415 241.864 269.34C241.715 269.265 241.537 269.195 241.332 269.13C241.136 269.065 240.931 268.999 240.716 268.934C240.445 268.859 240.17 268.771 239.89 268.668C239.619 268.565 239.372 268.435 239.148 268.276C238.933 268.108 238.756 267.903 238.616 267.66C238.476 267.417 238.406 267.119 238.406 266.764V266.736C238.406 266.391 238.471 266.078 238.602 265.798C238.742 265.518 238.929 265.28 239.162 265.084C239.405 264.888 239.685 264.739 240.002 264.636C240.329 264.533 240.674 264.482 241.038 264.482C241.505 264.482 241.976 264.557 242.452 264.706C242.928 264.855 243.362 265.061 243.754 265.322L243.082 266.526C242.727 266.311 242.368 266.143 242.004 266.022C241.64 265.891 241.304 265.826 240.996 265.826C240.669 265.826 240.413 265.896 240.226 266.036C240.049 266.176 239.96 266.353 239.96 266.568V266.596C239.96 266.727 240.007 266.843 240.1 266.946C240.193 267.039 240.315 267.128 240.464 267.212C240.623 267.287 240.8 267.361 240.996 267.436C241.201 267.501 241.411 267.567 241.626 267.632C241.897 267.716 242.167 267.814 242.438 267.926C242.709 268.038 242.951 268.178 243.166 268.346C243.39 268.505 243.572 268.701 243.712 268.934C243.852 269.167 243.922 269.452 243.922 269.788V269.816C243.922 270.208 243.852 270.549 243.712 270.838C243.572 271.127 243.376 271.37 243.124 271.566C242.881 271.753 242.592 271.897 242.256 272C241.92 272.093 241.561 272.14 241.178 272.14Z" fill="#1A1A1A"/>
<defs>
<linearGradient id="paint0_linear_21412_211633" x1="38" y1="308" x2="29.7511" y2="21.8691" gradientUnits="userSpaceOnUse">
<stop stop-color="#1B2123"/>
<stop offset="1" stop-color="#283134"/>
</linearGradient>
<linearGradient id="paint1_linear_21412_211633" x1="171" y1="0" x2="171" y2="135" gradientUnits="userSpaceOnUse">
<stop stop-color="#C4C4C4"/>
<stop offset="1" stop-color="#C4C4C4" stop-opacity="0"/>
</linearGradient>
<linearGradient id="paint2_linear_21412_211633" x1="269.746" y1="109.628" x2="269.746" y2="64.6248" gradientUnits="userSpaceOnUse">
<stop stop-color="#414F53"/>
<stop offset="1" stop-color="#5F8B95"/>
</linearGradient>
<linearGradient id="paint3_linear_21412_211633" x1="136.279" y1="114.325" x2="136.279" y2="55.3924" gradientUnits="userSpaceOnUse">
<stop stop-color="#414F53"/>
<stop offset="1" stop-color="#5F8B95"/>
</linearGradient>
<linearGradient id="paint4_linear_21412_211633" x1="241.838" y1="50.3191" x2="53.9322" y2="73.1011" gradientUnits="userSpaceOnUse">
<stop stop-color="#293235"/>
<stop offset="1" stop-color="#5F8B95"/>
</linearGradient>
<linearGradient id="paint5_linear_21412_211633" x1="227.139" y1="64.6676" x2="169.595" y2="51.6953" gradientUnits="userSpaceOnUse">
<stop stop-color="#404E52"/>
<stop offset="1" stop-color="#50747C" stop-opacity="0.4"/>
</linearGradient>
<linearGradient id="paint6_linear_21412_211633" x1="176.335" y1="53.1974" x2="154.502" y2="48.1416" gradientUnits="userSpaceOnUse">
<stop stop-color="#404E52"/>
<stop offset="1" stop-color="#50747C" stop-opacity="0.4"/>
</linearGradient>
<linearGradient id="paint7_linear_21412_211633" x1="255.526" y1="55.4085" x2="181.965" y2="38.2656" gradientUnits="userSpaceOnUse">
<stop stop-color="#404E52"/>
<stop offset="1" stop-color="#50747C" stop-opacity="0.4"/>
</linearGradient>
<linearGradient id="paint8_linear_21412_211633" x1="186.514" y1="35.3415" x2="192.481" y2="68.2605" gradientUnits="userSpaceOnUse">
<stop stop-color="#3D5359"/>
<stop offset="1" stop-color="#293235"/>
</linearGradient>
<linearGradient id="paint9_linear_21412_211633" x1="200.8" y1="26.015" x2="234.23" y2="69.1213" gradientUnits="userSpaceOnUse">
<stop stop-color="#293235"/>
<stop offset="1" stop-color="#293235" stop-opacity="0.2"/>
</linearGradient>
<linearGradient id="paint10_linear_21412_211633" x1="156.757" y1="132.43" x2="156.757" y2="86.9938" gradientUnits="userSpaceOnUse">
<stop stop-color="#414F53"/>
<stop offset="1" stop-color="#5F8B95"/>
</linearGradient>
<linearGradient id="paint11_linear_21412_211633" x1="23.29" y1="136.998" x2="23.29" y2="78.0648" gradientUnits="userSpaceOnUse">
<stop stop-color="#414F53"/>
<stop offset="1" stop-color="#5F8B95"/>
</linearGradient>
<linearGradient id="paint12_linear_21412_211633" x1="128.851" y1="73.7521" x2="-58.9476" y2="96.9633" gradientUnits="userSpaceOnUse">
<stop stop-color="#293235"/>
<stop offset="1" stop-color="#5F8B95"/>
</linearGradient>
<linearGradient id="paint13_linear_21412_211633" x1="135.374" y1="90.9621" x2="40.9997" y2="76.9127" gradientUnits="userSpaceOnUse">
<stop stop-color="#5F8B95"/>
<stop offset="1" stop-color="#5A8089" stop-opacity="0.12"/>
</linearGradient>
<linearGradient id="paint14_linear_21412_211633" x1="123.468" y1="82.9945" x2="123.468" y2="38.0045" gradientUnits="userSpaceOnUse">
<stop stop-color="#414F53"/>
<stop offset="1" stop-color="#5F8B95"/>
</linearGradient>
<linearGradient id="paint15_linear_21412_211633" x1="-9.99929" y1="87.7053" x2="-9.99929" y2="28.7725" gradientUnits="userSpaceOnUse">
<stop stop-color="#414F53"/>
<stop offset="1" stop-color="#5F8B95"/>
</linearGradient>
<linearGradient id="paint16_linear_21412_211633" x1="95.5605" y1="24.463" x2="-92.2383" y2="47.6742" gradientUnits="userSpaceOnUse">
<stop stop-color="#414F53"/>
<stop offset="1" stop-color="#5F8B95"/>
</linearGradient>
<linearGradient id="paint17_linear_21412_211633" x1="36.086" y1="23.2925" x2="77.3771" y2="27.7294" gradientUnits="userSpaceOnUse">
<stop stop-color="#A5D2DC"/>
<stop offset="1" stop-color="#A5D2DC" stop-opacity="0"/>
</linearGradient>
</defs>
</svg>
