<svg width="62" height="63" viewBox="0 0 62 63" fill="none" xmlns="http://www.w3.org/2000/svg">
<path d="M61.9992 31.7574C61.9992 48.8116 48.1202 62.6368 30.9996 62.6368C13.879 62.6368 0 48.8116 0 31.7574C0 14.7031 13.879 0.87793 30.9996 0.87793C48.1202 0.87793 61.9992 14.7031 61.9992 31.7574Z" fill="#B99855"/>
<path d="M61.9992 31.7574C61.9992 48.8116 48.1202 62.6368 30.9996 62.6368C13.879 62.6368 0 48.8116 0 31.7574C0 14.7031 13.879 0.87793 30.9996 0.87793C48.1202 0.87793 61.9992 14.7031 61.9992 31.7574Z" stroke="#343434"/>
<path fill-rule="evenodd" clip-rule="evenodd" d="M29.9941 1.00673V33.0298L41.7625 60.1923L42.4292 60.4569C38.8925 61.8551 35.0361 62.6236 30.9996 62.6236C13.879 62.6236 0 48.7984 0 31.7442C0 14.9832 13.4057 1.34122 30.1192 0.876953L29.9941 1.00673Z" fill="#8E7545"/>
<path fill-rule="evenodd" clip-rule="evenodd" d="M29.9941 32.8399V1.00673L30.1192 0.876953C13.4057 1.34122 0 14.9832 0 31.7442C0 35.0868 0.533157 38.3053 1.51938 41.32L29.9941 32.8399Z" fill="#6D8A96"/>
<path fill-rule="evenodd" clip-rule="evenodd" d="M29.9941 32.8392V1.00658L30.1073 0.88916C13.3993 1.35969 0 14.9993 0 31.7563C0 35.0945 0.531777 38.3091 1.51555 41.3204L29.9941 32.8392Z" fill="#9CB7C2"/>
<path fill-rule="evenodd" clip-rule="evenodd" d="M29.9937 1.00657V32.8393L29.898 32.8678L14.4756 5.61141C19.027 2.74971 24.3781 1.03532 30.1196 0.875977L29.9937 1.00657Z" fill="#6D8A96"/>
<path fill-rule="evenodd" clip-rule="evenodd" d="M29.9942 32.2811L22.0063 2.18316C24.585 1.40578 27.3057 0.954041 30.1201 0.875977L29.9942 1.00658V32.2811Z" fill="#496C7A"/>
<path fill-rule="evenodd" clip-rule="evenodd" d="M1.51443 22.0972C0.531304 25.1155 0 28.3366 0 31.6813C0 35.5346 0.705132 39.2237 1.99387 42.6278L33.764 33.1663L1.51443 22.0972Z" fill="#5DA683"/>
<ellipse cx="30.9998" cy="31.7556" rx="15.4998" ry="15.4397" fill="#263134"/>
</svg>
