<svg width="429" height="164" viewBox="0 0 429 164" fill="none" xmlns="http://www.w3.org/2000/svg">
<g clip-path="url(#clip0_25389_240711)">
<path d="M429 164.086C429 163.779 428.857 163.53 428.682 163.53C402.494 163.53 387.347 148.604 373.272 133.635C372.615 132.936 371.961 132.238 371.308 131.541L371.305 131.538C357.947 117.278 345.112 103.576 324.218 103.576C302.362 103.576 283.956 110.668 267.557 117.749C265.714 118.545 263.897 119.34 262.103 120.125C247.924 126.331 235.226 131.888 222.94 131.888C197.194 131.888 175.266 115.716 154.965 99.4946C153.437 98.2735 151.918 97.0518 150.406 95.8367L150.389 95.8229C131.859 80.9221 114.546 67 96.8196 67C77.6824 67 60.4863 74.4973 44.4166 81.9764C43.3888 82.4547 42.3658 82.933 41.3472 83.4091L41.3169 83.4233C26.4063 90.3932 14.0463 96.9152 0.318512 96.9152C0.142639 96.9152 0 97.1637 0 97.4703V240.326C0 242.355 1.64499 244 3.67416 244H425.326C427.355 244 429 242.355 429 240.326V164.086Z" fill="url(#paint0_linear_25389_240711)"/>
<path fill-rule="evenodd" clip-rule="evenodd" d="M154.305 100.402C174.585 116.673 196.854 133.23 223.105 133.23C230.225 133.23 237.434 131.409 244.878 128.724C250.645 126.643 256.608 124.022 262.808 121.298C264.599 120.511 266.41 119.715 268.241 118.921C284.627 111.817 302.851 104.781 324.459 104.781C344.819 104.781 357.302 118.154 370.754 132.566C371.378 133.235 372.005 133.906 372.634 134.579C386.741 149.644 402.229 165.026 429 165.026C429.567 165.026 430.026 164.567 430.026 164C430.026 163.433 429.567 162.974 429 162.974C403.182 162.974 388.232 148.234 374.132 133.176C373.453 132.451 372.776 131.725 372.099 130.999C358.806 116.744 345.736 102.728 324.459 102.728C302.403 102.728 283.85 109.917 267.425 117.038C265.568 117.843 263.741 118.646 261.94 119.437C255.753 122.156 249.877 124.739 244.181 126.793C236.838 129.442 229.886 131.178 223.105 131.178C197.676 131.178 175.944 115.133 155.589 98.8016C154.064 97.578 152.547 96.3527 151.036 95.133C142.514 88.2519 134.211 81.5482 126.017 76.3229C116.368 70.1699 106.733 65.9739 96.8915 65.9739C77.5278 65.9739 60.4821 73.5926 44.7276 81.1041C43.7271 81.5812 42.7322 82.0575 41.7426 82.5313C27.0549 89.5632 13.5381 96.0346 0 96.0346C-0.566742 96.0346 -1.02615 96.494 -1.02615 97.0607C-1.02615 97.6275 -0.566742 98.0869 0 98.0869C14.0258 98.0869 27.9562 91.4127 42.4977 84.4458C43.5323 83.9501 44.5699 83.453 45.6109 82.9566C61.3809 75.4378 78.0439 68.0262 96.8915 68.0262C106.156 68.0262 115.39 71.9806 124.913 78.0533C133.002 83.2114 141.201 89.8306 149.729 96.7153C151.243 97.9382 152.768 99.1694 154.305 100.402Z" fill="url(#paint1_radial_25389_240711)"/>
<g filter="url(#filter0_d_25389_240711)">
<rect x="124" y="13" width="86.6114" height="29.7557" rx="5.10097" fill="#404E52"/>
<path d="M139.06 29.1016H135.754V26.5811H139.06V23.2936H141.654V26.5811H144.959V29.1016H141.654V32.3891H139.06V29.1016Z" fill="white"/>
<path d="M152.88 31.9508C153.306 31.9508 153.689 31.8534 154.03 31.6585C154.371 31.4515 154.663 31.1715 154.907 30.8184C155.151 30.4531 155.333 30.0269 155.455 29.5399C155.589 29.0407 155.656 28.4988 155.656 27.9144V27.8779C155.656 27.2934 155.589 26.7577 155.455 26.2706C155.321 25.7714 155.126 25.3391 154.87 24.9739C154.627 24.6086 154.329 24.3224 153.976 24.1154C153.635 23.9084 153.257 23.805 152.843 23.805C152.417 23.805 152.033 23.9084 151.693 24.1154C151.352 24.3103 151.059 24.5903 150.816 24.9556C150.584 25.3087 150.402 25.7349 150.268 26.2341C150.134 26.7211 150.067 27.2569 150.067 27.8413V27.8779C150.067 28.4623 150.134 29.0041 150.268 29.5034C150.402 30.0026 150.591 30.4348 150.834 30.8001C151.078 31.1532 151.37 31.4333 151.711 31.6403C152.064 31.8473 152.454 31.9508 152.88 31.9508ZM152.843 34.4895C151.991 34.4895 151.212 34.3251 150.505 33.9963C149.811 33.6554 149.215 33.1927 148.715 32.6083C148.228 32.0116 147.851 31.3115 147.583 30.5079C147.315 29.7043 147.181 28.8398 147.181 27.9144V27.8779C147.181 26.9525 147.315 26.088 147.583 25.2843C147.863 24.4807 148.253 23.7806 148.752 23.184C149.251 22.5873 149.848 22.1186 150.542 21.7776C151.248 21.4367 152.027 21.2662 152.88 21.2662C153.72 21.2662 154.487 21.4367 155.181 21.7776C155.887 22.1064 156.484 22.5691 156.971 23.1657C157.47 23.7502 157.854 24.4442 158.121 25.2478C158.402 26.0514 158.542 26.9159 158.542 27.8413V27.8779C158.542 28.8032 158.402 29.6677 158.121 30.4714C157.854 31.275 157.47 31.9751 156.971 32.5717C156.472 33.1684 155.869 33.6372 155.163 33.9781C154.469 34.319 153.695 34.4895 152.843 34.4895Z" fill="white"/>
<path d="M160.669 31.348H163.628V34.2703H160.669V31.348Z" fill="white"/>
<path d="M168.013 24.2433L165.785 24.7912L165.201 22.4899L168.872 21.3941H170.79V34.2703H168.013V24.2433Z" fill="white"/>
<path d="M178.221 32.1334C178.915 32.1334 179.457 31.9812 179.846 31.6768C180.236 31.3724 180.431 30.9949 180.431 30.5444V30.5079C180.431 30.0087 180.224 29.6251 179.81 29.3573C179.396 29.0772 178.866 28.9372 178.221 28.9372C177.575 28.9372 177.046 29.0772 176.632 29.3573C176.218 29.6251 176.011 30.0087 176.011 30.5079V30.5444C176.011 30.9828 176.206 31.3602 176.595 31.6768C176.985 31.9812 177.527 32.1334 178.221 32.1334ZM178.221 26.709C178.781 26.709 179.225 26.5628 179.554 26.2706C179.883 25.9784 180.047 25.607 180.047 25.1565V25.12C180.047 24.7303 179.889 24.3833 179.572 24.0789C179.256 23.7745 178.805 23.6223 178.221 23.6223C177.636 23.6223 177.186 23.7745 176.869 24.0789C176.553 24.3711 176.394 24.7121 176.394 25.1017V25.1382C176.394 25.5888 176.559 25.9662 176.887 26.2706C177.216 26.5628 177.661 26.709 178.221 26.709ZM178.221 34.453C177.515 34.453 176.857 34.3677 176.248 34.1973C175.652 34.0146 175.134 33.765 174.696 33.4484C174.257 33.1197 173.91 32.73 173.655 32.2795C173.411 31.829 173.289 31.3237 173.289 30.7636V30.7271C173.289 29.9478 173.46 29.3207 173.801 28.8459C174.154 28.3588 174.671 27.957 175.353 27.6404C174.854 27.336 174.458 26.9707 174.166 26.5446C173.874 26.1062 173.728 25.54 173.728 24.846V24.8095C173.728 24.3224 173.831 23.8658 174.038 23.4397C174.257 23.0135 174.562 22.6421 174.951 22.3256C175.353 22.009 175.828 21.7594 176.376 21.5767C176.924 21.3941 177.539 21.3028 178.221 21.3028C178.89 21.3028 179.499 21.3941 180.047 21.5767C180.607 21.7594 181.082 22.009 181.472 22.3256C181.874 22.63 182.178 23.0013 182.385 23.4397C182.604 23.8658 182.714 24.3224 182.714 24.8095V24.846C182.714 25.54 182.568 26.1062 182.275 26.5446C181.983 26.9707 181.587 27.336 181.088 27.6404C181.734 27.9814 182.239 28.3832 182.604 28.8459C182.969 29.2964 183.152 29.8991 183.152 30.654V30.6905C183.152 31.2872 183.024 31.8168 182.769 32.2795C182.525 32.7422 182.184 33.1379 181.746 33.4667C181.307 33.7833 180.784 34.0268 180.175 34.1973C179.578 34.3677 178.927 34.453 178.221 34.453Z" fill="white"/>
<path d="M195.77 32.7544C196.16 32.7544 196.452 32.5961 196.647 32.2795C196.842 31.9629 196.939 31.5977 196.939 31.1837V31.1471C196.939 30.721 196.83 30.3496 196.611 30.033C196.391 29.7043 196.099 29.5399 195.734 29.5399C195.344 29.5399 195.052 29.6982 194.857 30.0148C194.662 30.3192 194.565 30.6844 194.565 31.1106V31.1471C194.565 31.5733 194.675 31.9508 194.894 32.2795C195.113 32.5961 195.405 32.7544 195.77 32.7544ZM187.917 26.2158C188.307 26.2158 188.599 26.0575 188.794 25.741C188.988 25.4244 189.086 25.0591 189.086 24.6451V24.6086C189.086 24.1824 188.976 23.811 188.757 23.4945C188.538 23.1657 188.246 23.0013 187.88 23.0013C187.491 23.0013 187.198 23.1596 187.004 23.4762C186.809 23.7806 186.711 24.1459 186.711 24.572V24.6086C186.711 25.0347 186.821 25.4122 187.04 25.741C187.259 26.0575 187.552 26.2158 187.917 26.2158ZM195.734 34.4164C195.271 34.4164 194.851 34.3312 194.474 34.1607C194.096 33.9903 193.768 33.7589 193.487 33.4667C193.22 33.1745 193.013 32.8335 192.866 32.4439C192.72 32.0543 192.647 31.6342 192.647 31.1837V31.1471C192.647 30.6966 192.72 30.2766 192.866 29.8869C193.025 29.4851 193.238 29.1381 193.506 28.8459C193.786 28.5415 194.115 28.304 194.492 28.1336C194.882 27.9631 195.308 27.8779 195.77 27.8779C196.233 27.8779 196.653 27.9631 197.031 28.1336C197.408 28.304 197.731 28.5354 197.999 28.8276C198.279 29.1198 198.492 29.4608 198.638 29.8504C198.784 30.24 198.857 30.6601 198.857 31.1106V31.1471C198.857 31.5977 198.778 32.0238 198.62 32.4256C198.474 32.8153 198.26 33.1623 197.98 33.4667C197.713 33.7589 197.384 33.9903 196.994 34.1607C196.617 34.3312 196.197 34.4164 195.734 34.4164ZM195.405 21.4854H197.579L188.246 34.2703H186.072L195.405 21.4854ZM187.88 27.8779C187.418 27.8779 186.998 27.7926 186.62 27.6222C186.243 27.4517 185.914 27.2203 185.634 26.9281C185.366 26.6359 185.159 26.295 185.013 25.9053C184.867 25.5157 184.794 25.0956 184.794 24.6451V24.6086C184.794 24.1581 184.867 23.738 185.013 23.3483C185.171 22.9465 185.384 22.5995 185.652 22.3073C185.932 22.0029 186.261 21.7655 186.638 21.595C187.028 21.4245 187.454 21.3393 187.917 21.3393C188.38 21.3393 188.8 21.4245 189.177 21.595C189.555 21.7655 189.877 21.9968 190.145 22.289C190.425 22.5813 190.638 22.9222 190.784 23.3118C190.93 23.7015 191.004 24.1215 191.004 24.572V24.6086C191.004 25.0591 190.924 25.4853 190.766 25.8871C190.62 26.2767 190.407 26.6237 190.127 26.9281C189.859 27.2203 189.53 27.4517 189.141 27.6222C188.763 27.7926 188.343 27.8779 187.88 27.8779Z" fill="white"/>
</g>
<path fill-rule="evenodd" clip-rule="evenodd" d="M166.574 44.7283L166.574 43L167.426 43L167.426 44.7283L166.574 44.7283ZM166.574 51.6413L166.574 48.1848L167.426 48.1848L167.426 51.6413L166.574 51.6413ZM166.574 58.5543L166.574 55.0978L167.426 55.0978L167.426 58.5543L166.574 58.5543ZM166.574 65.4674L166.574 62.0109L167.426 62.0109L167.426 65.4674L166.574 65.4674ZM166.574 72.3804L166.574 68.9239L167.426 68.9239L167.426 72.3804L166.574 72.3804ZM166.574 79.2935L166.574 75.837L167.426 75.837L167.426 79.2935L166.574 79.2935ZM166.574 86.2065L166.574 82.75L167.426 82.75L167.426 86.2065L166.574 86.2065ZM166.574 93.1196L166.574 89.663L167.426 89.663L167.426 93.1196L166.574 93.1196ZM166.574 100.033L166.574 96.5761L167.426 96.5761L167.426 100.033L166.574 100.033ZM166.574 106.946L166.574 103.489L167.426 103.489L167.426 106.946L166.574 106.946ZM166.574 113.859L166.574 110.402L167.426 110.402L167.426 113.859L166.574 113.859ZM166.574 120.772L166.574 117.315L167.426 117.315L167.426 120.772L166.574 120.772ZM166.574 127.685L166.574 124.228L167.426 124.228L167.426 127.685L166.574 127.685ZM166.574 134.598L166.574 131.141L167.426 131.141L167.426 134.598L166.574 134.598ZM166.574 141.511L166.574 138.054L167.426 138.054L167.426 141.511L166.574 141.511ZM166.574 148.424L166.574 144.967L167.426 144.967L167.426 148.424L166.574 148.424ZM166.574 155.337L166.574 151.88L167.426 151.88L167.426 155.337L166.574 155.337ZM166.574 162.25L166.574 158.793L167.426 158.793L167.426 162.25L166.574 162.25ZM166.574 169.163L166.574 165.706L167.426 165.706L167.426 169.163L166.574 169.163ZM166.574 176.076L166.574 172.62L167.426 172.62L167.426 176.076L166.574 176.076ZM166.574 182.989L166.574 179.533L167.426 179.533L167.426 182.989L166.574 182.989ZM166.574 189.902L166.574 186.446L167.426 186.446L167.426 189.902L166.574 189.902ZM166.574 196.815L166.574 193.359L167.426 193.359L167.426 196.815L166.574 196.815ZM166.574 202L166.574 200.272L167.426 200.272L167.426 202L166.574 202Z" fill="#AAAAAA"/>
<path d="M173.755 110.849C173.755 114.632 170.688 117.698 166.906 117.698C163.123 117.698 160.057 114.632 160.057 110.849C160.057 107.066 163.123 104 166.906 104C170.688 104 173.755 107.066 173.755 110.849Z" fill="#B99855"/>
</g>
<defs>
<filter id="filter0_d_25389_240711" x="115.498" y="13" width="103.615" height="47.609" filterUnits="userSpaceOnUse" color-interpolation-filters="sRGB">
<feFlood flood-opacity="0" result="BackgroundImageFix"/>
<feColorMatrix in="SourceAlpha" type="matrix" values="0 0 0 0 0 0 0 0 0 0 0 0 0 0 0 0 0 0 127 0" result="hardAlpha"/>
<feOffset dy="9.35178"/>
<feGaussianBlur stdDeviation="4.25081"/>
<feColorMatrix type="matrix" values="0 0 0 0 0 0 0 0 0 0 0 0 0 0 0 0 0 0 0.15 0"/>
<feBlend mode="normal" in2="BackgroundImageFix" result="effect1_dropShadow_25389_240711"/>
<feBlend mode="normal" in="SourceGraphic" in2="effect1_dropShadow_25389_240711" result="shape"/>
</filter>
<linearGradient id="paint0_linear_25389_240711" x1="225.5" y1="87" x2="207.5" y2="186" gradientUnits="userSpaceOnUse">
<stop stop-color="#D0D0D0" stop-opacity="0.1"/>
<stop offset="1" stop-color="white" stop-opacity="0"/>
</linearGradient>
<radialGradient id="paint1_radial_25389_240711" cx="0" cy="0" r="1" gradientUnits="userSpaceOnUse" gradientTransform="translate(214.5 91.6626) rotate(102.082) scale(74.8413 331.862)">
<stop stop-color="#B99855"/>
<stop offset="1" stop-color="#B99855" stop-opacity="0"/>
</radialGradient>
<clipPath id="clip0_25389_240711">
<path d="M0 6C0 2.6863 2.68629 0 6 0H423C426.314 0 429 2.68629 429 6V158C429 161.314 426.314 164 423 164H0V6Z" fill="white"/>
</clipPath>
</defs>
</svg>
