<svg width="429" height="164" viewBox="0 0 429 164" fill="none" xmlns="http://www.w3.org/2000/svg">
<g clip-path="url(#clip0_25286_240667)">
<path d="M0 164.086C0 163.779 0.142591 163.53 0.318486 163.53C26.5062 163.53 41.6531 148.604 55.7283 133.635C56.3849 132.936 57.0392 132.238 57.6923 131.541L57.6946 131.538C71.053 117.278 83.8878 103.576 104.782 103.576C126.638 103.576 145.044 110.668 161.443 117.749C163.286 118.545 165.103 119.34 166.897 120.125C181.076 126.331 193.774 131.888 206.06 131.888C231.806 131.888 253.734 115.716 274.035 99.4946C275.563 98.2735 277.082 97.0518 278.594 95.8367L278.611 95.8229C297.141 80.9221 314.454 67 332.18 67C351.318 67 368.514 74.4973 384.583 81.9764C385.611 82.4547 386.634 82.933 387.653 83.4091L387.683 83.4233C402.594 90.3932 414.954 96.9152 428.681 96.9152C428.857 96.9152 429 97.1637 429 97.4703V240.326C429 242.355 427.355 244 425.326 244H3.67416C1.64498 244 0 242.355 0 240.326V164.086Z" fill="url(#paint0_linear_25286_240667)"/>
<path d="M0 164C52.5892 164 60.8759 103.754 104.541 103.754C148.206 103.754 178.095 132.204 205.895 132.204C257.576 132.204 293.897 67 332.108 67C370.32 67 399.526 97.0607 429 97.0607" stroke="url(#paint1_radial_25286_240667)" stroke-width="2.0523" stroke-linecap="round" stroke-linejoin="round"/>
<g filter="url(#filter0_d_25286_240667)">
<rect x="214" y="13" width="86.6114" height="29.7557" rx="5.10097" fill="#404E52"/>
<path d="M228.75 29.577H225.444V27.0565H228.75V23.769H231.343V27.0565H234.649V29.577H231.343V32.8645H228.75V29.577ZM242.569 32.4262C242.995 32.4262 243.379 32.3288 243.72 32.134C244.061 31.927 244.353 31.6469 244.597 31.2938C244.84 30.9285 245.023 30.5024 245.145 30.0153C245.279 29.5161 245.345 28.9743 245.345 28.3898V28.3533C245.345 27.7688 245.279 27.2331 245.145 26.746C245.011 26.2468 244.816 25.8146 244.56 25.4493C244.317 25.084 244.018 24.7979 243.665 24.5909C243.324 24.3839 242.947 24.2804 242.533 24.2804C242.107 24.2804 241.723 24.3839 241.382 24.5909C241.041 24.7857 240.749 25.0657 240.505 25.431C240.274 25.7841 240.091 26.2103 239.958 26.7095C239.824 27.1965 239.757 27.7323 239.757 28.3167V28.3533C239.757 28.9377 239.824 29.4796 239.958 29.9788C240.091 30.478 240.28 30.9103 240.524 31.2755C240.767 31.6286 241.059 31.9087 241.4 32.1157C241.754 32.3227 242.143 32.4262 242.569 32.4262ZM242.533 34.9649C241.68 34.9649 240.901 34.8005 240.195 34.4718C239.501 34.1308 238.904 33.6681 238.405 33.0837C237.918 32.4871 237.541 31.7869 237.273 30.9833C237.005 30.1797 236.871 29.3152 236.871 28.3898V28.3533C236.871 27.4279 237.005 26.5634 237.273 25.7598C237.553 24.9561 237.942 24.256 238.442 23.6594C238.941 23.0628 239.537 22.594 240.232 22.253C240.938 21.9121 241.717 21.7417 242.569 21.7417C243.409 21.7417 244.177 21.9121 244.871 22.253C245.577 22.5818 246.173 23.0445 246.66 23.6411C247.16 24.2256 247.543 24.9196 247.811 25.7232C248.091 26.5269 248.231 27.3914 248.231 28.3167V28.3533C248.231 29.2787 248.091 30.1432 247.811 30.9468C247.543 31.7504 247.16 32.4505 246.66 33.0472C246.161 33.6438 245.559 34.1126 244.852 34.4535C244.158 34.7944 243.385 34.9649 242.533 34.9649ZM250.358 31.8235H253.317V34.7457H250.358V31.8235ZM257.703 24.7187L255.475 25.2666L254.89 22.9653L258.561 21.8695H260.479V34.7457H257.703V24.7187ZM267.91 32.6088C268.604 32.6088 269.146 32.4566 269.536 32.1522C269.926 31.8478 270.12 31.4704 270.12 31.0198V30.9833C270.12 30.4841 269.913 30.1005 269.499 29.8327C269.085 29.5526 268.556 29.4126 267.91 29.4126C267.265 29.4126 266.735 29.5526 266.321 29.8327C265.907 30.1005 265.7 30.4841 265.7 30.9833V31.0198C265.7 31.4582 265.895 31.8356 266.285 32.1522C266.675 32.4566 267.216 32.6088 267.91 32.6088ZM267.91 27.1844C268.471 27.1844 268.915 27.0383 269.244 26.746C269.572 26.4538 269.737 26.0824 269.737 25.6319V25.5954C269.737 25.2058 269.579 24.8587 269.262 24.5543C268.945 24.2499 268.495 24.0977 267.91 24.0977C267.326 24.0977 266.875 24.2499 266.559 24.5543C266.242 24.8466 266.084 25.1875 266.084 25.5771V25.6137C266.084 26.0642 266.248 26.4416 266.577 26.746C266.906 27.0383 267.35 27.1844 267.91 27.1844ZM267.91 34.9284C267.204 34.9284 266.547 34.8431 265.938 34.6727C265.341 34.49 264.824 34.2404 264.385 33.9238C263.947 33.5951 263.6 33.2055 263.344 32.7549C263.101 32.3044 262.979 31.7991 262.979 31.239V31.2025C262.979 30.4232 263.15 29.7961 263.49 29.3213C263.844 28.8342 264.361 28.4324 265.043 28.1158C264.544 27.8114 264.148 27.4462 263.856 27.02C263.564 26.5817 263.417 26.0155 263.417 25.3214V25.2849C263.417 24.7979 263.521 24.3412 263.728 23.9151C263.947 23.4889 264.251 23.1176 264.641 22.801C265.043 22.4844 265.518 22.2348 266.066 22.0521C266.614 21.8695 267.229 21.7782 267.91 21.7782C268.58 21.7782 269.189 21.8695 269.737 22.0521C270.297 22.2348 270.772 22.4844 271.161 22.801C271.563 23.1054 271.868 23.4767 272.075 23.9151C272.294 24.3412 272.403 24.7979 272.403 25.2849V25.3214C272.403 26.0155 272.257 26.5817 271.965 27.02C271.673 27.4462 271.277 27.8114 270.778 28.1158C271.423 28.4568 271.929 28.8586 272.294 29.3213C272.659 29.7718 272.842 30.3745 272.842 31.1294V31.166C272.842 31.7626 272.714 32.2922 272.458 32.7549C272.215 33.2176 271.874 33.6134 271.435 33.9421C270.997 34.2587 270.473 34.5022 269.865 34.6727C269.268 34.8431 268.617 34.9284 267.91 34.9284ZM285.46 33.2298C285.85 33.2298 286.142 33.0715 286.337 32.7549C286.532 32.4384 286.629 32.0731 286.629 31.6591V31.6226C286.629 31.1964 286.519 30.825 286.3 30.5084C286.081 30.1797 285.789 30.0153 285.424 30.0153C285.034 30.0153 284.742 30.1736 284.547 30.4902C284.352 30.7946 284.255 31.1599 284.255 31.586V31.6226C284.255 32.0487 284.364 32.4262 284.583 32.7549C284.803 33.0715 285.095 33.2298 285.46 33.2298ZM277.607 26.6912C277.996 26.6912 278.288 26.5329 278.483 26.2164C278.678 25.8998 278.775 25.5345 278.775 25.1205V25.084C278.775 24.6578 278.666 24.2865 278.447 23.9699C278.228 23.6411 277.935 23.4767 277.57 23.4767C277.18 23.4767 276.888 23.635 276.693 23.9516C276.499 24.256 276.401 24.6213 276.401 25.0475V25.084C276.401 25.5102 276.511 25.8876 276.73 26.2164C276.949 26.5329 277.241 26.6912 277.607 26.6912ZM285.424 34.8918C284.961 34.8918 284.541 34.8066 284.163 34.6361C283.786 34.4657 283.457 34.2343 283.177 33.9421C282.909 33.6499 282.702 33.3089 282.556 32.9193C282.41 32.5297 282.337 32.1096 282.337 31.6591V31.6226C282.337 31.172 282.41 30.752 282.556 30.3623C282.714 29.9605 282.927 29.6135 283.195 29.3213C283.475 29.0169 283.804 28.7794 284.182 28.609C284.571 28.4385 284.997 28.3533 285.46 28.3533C285.923 28.3533 286.343 28.4385 286.72 28.609C287.098 28.7794 287.42 29.0108 287.688 29.303C287.968 29.5952 288.181 29.9362 288.328 30.3258C288.474 30.7154 288.547 31.1355 288.547 31.586V31.6226C288.547 32.0731 288.468 32.4992 288.309 32.901C288.163 33.2907 287.95 33.6377 287.67 33.9421C287.402 34.2343 287.073 34.4657 286.684 34.6361C286.306 34.8066 285.886 34.8918 285.424 34.8918ZM285.095 21.9608H287.268L277.935 34.7457H275.762L285.095 21.9608ZM277.57 28.3533C277.107 28.3533 276.687 28.268 276.31 28.0976C275.932 27.9271 275.604 27.6958 275.324 27.4035C275.056 27.1113 274.849 26.7704 274.703 26.3807C274.556 25.9911 274.483 25.571 274.483 25.1205V25.084C274.483 24.6335 274.556 24.2134 274.703 23.8238C274.861 23.422 275.074 23.0749 275.342 22.7827C275.622 22.4783 275.951 22.2409 276.328 22.0704C276.718 21.8999 277.144 21.8147 277.607 21.8147C278.069 21.8147 278.489 21.8999 278.867 22.0704C279.244 22.2409 279.567 22.4722 279.835 22.7644C280.115 23.0567 280.328 23.3976 280.474 23.7872C280.62 24.1769 280.693 24.5969 280.693 25.0475V25.084C280.693 25.5345 280.614 25.9607 280.456 26.3625C280.31 26.7521 280.097 27.0991 279.816 27.4035C279.549 27.6958 279.22 27.9271 278.83 28.0976C278.453 28.268 278.033 28.3533 277.57 28.3533Z" fill="white"/>
</g>
<path d="M257 43L257 202" stroke="#AAAAAA" stroke-width="0.852585" stroke-dasharray="3.41 3.41"/>
<circle cx="256.906" cy="110.849" r="6.84906" fill="#B99855"/>
</g>
<defs>
<filter id="filter0_d_25286_240667" x="205.498" y="13" width="103.615" height="47.6091" filterUnits="userSpaceOnUse" color-interpolation-filters="sRGB">
<feFlood flood-opacity="0" result="BackgroundImageFix"/>
<feColorMatrix in="SourceAlpha" type="matrix" values="0 0 0 0 0 0 0 0 0 0 0 0 0 0 0 0 0 0 127 0" result="hardAlpha"/>
<feOffset dy="9.35178"/>
<feGaussianBlur stdDeviation="4.25081"/>
<feColorMatrix type="matrix" values="0 0 0 0 0 0 0 0 0 0 0 0 0 0 0 0 0 0 0.15 0"/>
<feBlend mode="normal" in2="BackgroundImageFix" result="effect1_dropShadow_25286_240667"/>
<feBlend mode="normal" in="SourceGraphic" in2="effect1_dropShadow_25286_240667" result="shape"/>
</filter>
<linearGradient id="paint0_linear_25286_240667" x1="203.5" y1="87" x2="221.5" y2="186" gradientUnits="userSpaceOnUse">
<stop stop-color="#D0D0D0" stop-opacity="0.1"/>
<stop offset="1" stop-color="white" stop-opacity="0"/>
</linearGradient>
<radialGradient id="paint1_radial_25286_240667" cx="0" cy="0" r="1" gradientUnits="userSpaceOnUse" gradientTransform="translate(214.5 91.6626) rotate(77.9175) scale(74.8413 331.862)">
<stop stop-color="#B99855"/>
<stop offset="1" stop-color="#B99855" stop-opacity="0"/>
</radialGradient>
<clipPath id="clip0_25286_240667">
<path d="M0 6C0 2.6863 2.68629 0 6 0H423C426.314 0 429 2.68629 429 6V158C429 161.314 426.314 164 423 164H0V6Z" fill="white"/>
</clipPath>
</defs>
</svg>
