<svg width="208" height="168" viewBox="0 0 208 168" fill="none" xmlns="http://www.w3.org/2000/svg">
<mask id="mask0_16719_174530" style="mask-type:alpha" maskUnits="userSpaceOnUse" x="0" y="0" width="208" height="168">
<rect width="208" height="168" rx="6" fill="#C4C4C4"/>
</mask>
<g mask="url(#mask0_16719_174530)">
<path d="M68.9813 157.297C75.3068 168.418 84.0049 177.96 94.4375 185.223C104.87 192.487 116.772 197.287 129.271 199.272C141.77 201.258 154.548 200.377 166.668 196.696C178.788 193.015 189.942 186.626 199.312 177.998C208.682 169.37 216.03 158.722 220.817 146.836C225.604 134.95 227.708 122.126 226.976 109.307C226.243 96.4872 222.692 83.9967 216.584 72.7518C210.475 61.5068 201.964 51.7928 191.674 44.3223L166.538 79.9938C171.581 83.6555 175.753 88.4169 178.747 93.9286C181.742 99.4403 183.482 105.563 183.841 111.846C184.2 118.13 183.168 124.415 180.822 130.241C178.476 136.067 174.874 141.286 170.281 145.515C165.689 149.744 160.222 152.875 154.281 154.68C148.34 156.484 142.077 156.916 135.951 155.943C129.825 154.97 123.991 152.617 118.877 149.057C113.764 145.496 109.5 140.819 106.4 135.368L68.9813 157.297Z" fill="url(#paint0_linear_16719_174530)"/>
<path d="M192.236 44.735C174.814 31.8658 153.217 26.216 131.837 28.9348C110.456 31.6537 90.8996 42.537 77.1436 59.3711L110.4 87.37C117.142 79.1187 126.728 73.7843 137.208 72.4516C147.687 71.119 158.273 73.8882 166.813 80.1961L192.236 44.735Z" fill="url(#paint1_linear_16719_174530)"/>
<path d="M77.687 58.7128C66.291 72.3788 59.3801 89.3138 57.9179 107.157C56.4558 124.999 60.5152 142.86 69.5301 158.25L106.668 135.835C102.249 128.292 100.26 119.538 100.976 110.792C101.693 102.046 105.081 93.7457 110.666 87.0473L77.687 58.7128Z" fill="url(#paint2_linear_16719_174530)"/>
</g>
<defs>
<linearGradient id="paint0_linear_16719_174530" x1="334.064" y1="19.7496" x2="88.2303" y2="249.349" gradientUnits="userSpaceOnUse">
<stop stop-color="#414F53"/>
<stop offset="1" stop-color="#5F8B95"/>
</linearGradient>
<linearGradient id="paint1_linear_16719_174530" x1="-243.046" y1="-274.631" x2="179.818" y2="11.5426" gradientUnits="userSpaceOnUse">
<stop stop-color="#414F53"/>
<stop offset="1" stop-color="#5F8B95"/>
</linearGradient>
<linearGradient id="paint2_linear_16719_174530" x1="126.914" y1="-136.414" x2="110.027" y2="171.619" gradientUnits="userSpaceOnUse">
<stop stop-color="#414F53"/>
<stop offset="1" stop-color="#5F8B95"/>
</linearGradient>
</defs>
</svg>
