<svg width="48" height="48" viewBox="0 0 48 48" fill="none" xmlns="http://www.w3.org/2000/svg">
<path d="M48 24C48 20.4172 47.1979 16.8799 45.6524 13.6476C44.107 10.4153 41.8575 7.57001 39.069 5.32048C36.2805 3.07095 33.0237 1.47428 29.5377 0.647607C26.0516 -0.179064 22.4246 -0.214756 18.923 0.543151C15.4213 1.30106 12.1337 2.83333 9.30149 5.02755C6.46926 7.22177 4.16421 10.0222 2.55548 13.2235C0.946749 16.4248 0.075155 19.9456 0.00464787 23.5277C-0.0658592 27.1098 0.66651 30.6622 2.14802 33.9243L13.2892 28.8644C12.5631 27.2655 12.2041 25.5242 12.2387 23.7685C12.2732 22.0127 12.7004 20.287 13.489 18.7179C14.2775 17.1488 15.4073 15.7761 16.7955 14.7006C18.1837 13.6251 19.7951 12.8741 21.5115 12.5026C23.2278 12.1311 25.0056 12.1486 26.7143 12.5538C28.423 12.959 30.0193 13.7416 31.3861 14.8442C32.7529 15.9468 33.8555 17.3415 34.613 18.9258C35.3704 20.5101 35.7636 22.2439 35.7636 24H48Z" fill="#5F8B95"/>
<path d="M2.06736 33.7447C4.54503 39.3213 9.05389 43.7446 14.6769 46.1151C20.2998 48.4856 26.6146 48.6252 32.3368 46.5055L28.0863 35.0311C25.2816 36.0701 22.1864 36.0016 19.4303 34.8397C16.6742 33.6779 14.4641 31.5097 13.2497 28.7764L2.06736 33.7447Z" fill="#A5BFC5"/>
<path d="M32.1117 46.5876C36.8132 44.8992 40.8706 41.7859 43.7183 37.6816C46.5661 33.5774 48.0622 28.6868 47.998 23.6918L35.7626 23.8489C35.7941 26.2973 35.0608 28.6944 33.665 30.7061C32.2691 32.7178 30.2804 34.2438 27.976 35.0713L32.1117 46.5876Z" fill="#8FB0B7"/>
</svg>
