<svg width="215" height="238" viewBox="0 0 215 238" fill="none" xmlns="http://www.w3.org/2000/svg">
<mask id="mask0_7724_120997" style="mask-type:alpha" maskUnits="userSpaceOnUse" x="0" y="0" width="215" height="238">
<rect width="215" height="238" fill="#C4C4C4"/>
</mask>
<g mask="url(#mask0_7724_120997)">
<path d="M36.5 161L9 147.787L36.5 134L64 147.787L36.5 161Z" fill="url(#paint0_linear_7724_120997)"/>
<path d="M182.5 128L155 114.787L182.5 101L210 114.787L182.5 128Z" fill="url(#paint1_linear_7724_120997)"/>
<path d="M37 160.678V318L9 303.593V148L37 160.678Z" fill="url(#paint2_linear_7724_120997)"/>
<path d="M183 127.678V285L155 270.593V115L183 127.678Z" fill="url(#paint3_linear_7724_120997)"/>
<path d="M37 160.603V317L64 302.678V148L37 160.603Z" fill="url(#paint4_linear_7724_120997)"/>
<path d="M183 127.603V284L210 269.678V115L183 127.603Z" fill="url(#paint5_linear_7724_120997)"/>
<path d="M107.5 47L80 33.7872L107.5 20L135 33.7872L107.5 47Z" fill="url(#paint6_linear_7724_120997)"/>
<path d="M182.5 128L155 114.787L182.5 101L210 114.787L182.5 128Z" fill="url(#paint7_linear_7724_120997)"/>
<path d="M108 46.678V257.5L80 243.093V34L108 46.678Z" fill="url(#paint8_linear_7724_120997)"/>
<path d="M183 127.678V354.5L155 340.093V115L183 127.678Z" fill="url(#paint9_linear_7724_120997)"/>
<path d="M108 46.6034V259.822L135 245.5V34L108 46.6034Z" fill="url(#paint10_linear_7724_120997)"/>
<path d="M183 127.603V356.822L210 342.5V115L183 127.603Z" fill="url(#paint11_linear_7724_120997)"/>
</g>
<defs>
<linearGradient id="paint0_linear_7724_120997" x1="52.5" y1="147" x2="-24.5" y2="158" gradientUnits="userSpaceOnUse">
<stop stop-color="#414F53"/>
<stop offset="1" stop-color="#5F8B95"/>
</linearGradient>
<linearGradient id="paint1_linear_7724_120997" x1="182.5" y1="101" x2="182.5" y2="128" gradientUnits="userSpaceOnUse">
<stop stop-color="#664B73"/>
<stop offset="1" stop-color="#664B73" stop-opacity="0"/>
</linearGradient>
<linearGradient id="paint2_linear_7724_120997" x1="37" y1="388.358" x2="37" y2="180.327" gradientUnits="userSpaceOnUse">
<stop stop-color="#414F53"/>
<stop offset="1" stop-color="#5F8B95"/>
</linearGradient>
<linearGradient id="paint3_linear_7724_120997" x1="169" y1="115" x2="169" y2="285" gradientUnits="userSpaceOnUse">
<stop stop-color="#AA90B6"/>
<stop offset="1" stop-color="#AA90B6" stop-opacity="0"/>
</linearGradient>
<linearGradient id="paint4_linear_7724_120997" x1="45" y1="49.5884" x2="48.3608" y2="317.166" gradientUnits="userSpaceOnUse">
<stop stop-color="#414F53"/>
<stop offset="1" stop-color="#5F8B95"/>
</linearGradient>
<linearGradient id="paint5_linear_7724_120997" x1="196.5" y1="115" x2="196.5" y2="284" gradientUnits="userSpaceOnUse">
<stop stop-color="#9777A6"/>
<stop offset="1" stop-color="#9777A6" stop-opacity="0"/>
</linearGradient>
<linearGradient id="paint6_linear_7724_120997" x1="123.5" y1="33" x2="46.5" y2="44" gradientUnits="userSpaceOnUse">
<stop stop-color="#414F53"/>
<stop offset="1" stop-color="#5F8B95"/>
</linearGradient>
<linearGradient id="paint7_linear_7724_120997" x1="198.5" y1="114" x2="121.5" y2="125" gradientUnits="userSpaceOnUse">
<stop stop-color="#414F53"/>
<stop offset="1" stop-color="#5F8B95"/>
</linearGradient>
<linearGradient id="paint8_linear_7724_120997" x1="108" y1="350" x2="108" y2="76.5" gradientUnits="userSpaceOnUse">
<stop stop-color="#414F53"/>
<stop offset="1" stop-color="#5F8B95"/>
</linearGradient>
<linearGradient id="paint9_linear_7724_120997" x1="183" y1="453.622" x2="183" y2="160.542" gradientUnits="userSpaceOnUse">
<stop stop-color="#414F53"/>
<stop offset="1" stop-color="#5F8B95"/>
</linearGradient>
<linearGradient id="paint10_linear_7724_120997" x1="116" y1="-97.5" x2="122" y2="260" gradientUnits="userSpaceOnUse">
<stop stop-color="#414F53"/>
<stop offset="1" stop-color="#5F8B95"/>
</linearGradient>
<linearGradient id="paint11_linear_7724_120997" x1="191" y1="-25.8171" x2="197.88" y2="356.997" gradientUnits="userSpaceOnUse">
<stop stop-color="#414F53"/>
<stop offset="1" stop-color="#5F8B95"/>
</linearGradient>
</defs>
</svg>
